<svg id="svg" version="1.1" xmlns="http://www.w3.org/2000/svg" xmlns:xlink="http://www.w3.org/1999/xlink" width="400" height="400" viewBox="0, 0, 400,400"><g id="svgg"><path id="path0" d="M17.969 200.000 L 17.969 382.031 78.125 382.031 L 138.281 382.031 138.281 200.000 L 138.281 17.969 78.125 17.969 L 17.969 17.969 17.969 200.000 M147.266 75.195 L 147.266 132.422 264.648 132.422 L 382.031 132.422 382.031 75.195 L 382.031 17.969 264.648 17.969 L 147.266 17.969 147.266 75.195 M129.297 200.000 L 129.297 373.047 78.125 373.047 L 26.953 373.047 26.953 200.000 L 26.953 26.953 78.125 26.953 L 129.297 26.953 129.297 200.000 M373.047 75.195 L 373.047 123.438 264.648 123.438 L 156.250 123.438 156.250 75.195 L 156.250 26.953 264.648 26.953 L 373.047 26.953 373.047 75.195 M147.266 261.719 L 147.266 382.031 205.273 382.031 L 263.281 382.031 263.281 261.719 L 263.281 141.406 205.273 141.406 L 147.266 141.406 147.266 261.719 M272.266 261.719 L 272.266 382.031 327.148 382.031 L 382.031 382.031 382.031 261.719 L 382.031 141.406 327.148 141.406 L 272.266 141.406 272.266 261.719 M254.297 261.719 L 254.297 373.047 205.273 373.047 L 156.250 373.047 156.250 261.719 L 156.250 150.391 205.273 150.391 L 254.297 150.391 254.297 261.719 M373.047 261.719 L 373.047 373.047 327.148 373.047 L 281.250 373.047 281.250 261.719 L 281.250 150.391 327.148 150.391 L 373.047 150.391 373.047 261.719 " stroke="none" fill="#343434" fill-rule="evenodd"></path><path id="path1" d="M26.953 200.000 L 26.953 373.047 78.125 373.047 L 129.297 373.047 129.297 200.000 L 129.297 26.953 78.125 26.953 L 26.953 26.953 26.953 200.000 " stroke="none" fill="#7444f4" fill-rule="evenodd"></path><path id="path2" d="M156.250 75.195 L 156.250 123.438 264.648 123.438 L 373.047 123.438 373.047 75.195 L 373.047 26.953 264.648 26.953 L 156.250 26.953 156.250 75.195 " stroke="none" fill="#3ceca4" fill-rule="evenodd"></path><path id="path3" d="M281.250 261.719 L 281.250 373.047 327.148 373.047 L 373.047 373.047 373.047 261.719 L 373.047 150.391 327.148 150.391 L 281.250 150.391 281.250 261.719 " stroke="none" fill="#ac0c9c" fill-rule="evenodd"></path><path id="path4" d="M156.250 261.719 L 156.250 373.047 205.273 373.047 L 254.297 373.047 254.297 261.719 L 254.297 150.391 205.273 150.391 L 156.250 150.391 156.250 261.719 " stroke="none" fill="#dcac24" fill-rule="evenodd"></path><path id="path5" d="M0.000 200.000 L 0.000 400.000 200.000 400.000 L 400.000 400.000 400.000 200.000 L 400.000 0.000 200.000 0.000 L 0.000 0.000 0.000 200.000 M391.016 200.000 L 391.016 391.016 200.000 391.016 L 8.984 391.016 8.984 200.000 L 8.984 8.984 200.000 8.984 L 391.016 8.984 391.016 200.000 " stroke="none" fill="#fcfcfc" fill-rule="evenodd"></path><path id="path6" d="M8.984 200.000 L 8.984 391.016 200.000 391.016 L 391.016 391.016 391.016 200.000 L 391.016 8.984 200.000 8.984 L 8.984 8.984 8.984 200.000 M138.281 200.000 L 138.281 382.031 78.125 382.031 L 17.969 382.031 17.969 200.000 L 17.969 17.969 78.125 17.969 L 138.281 17.969 138.281 200.000 M382.031 75.195 L 382.031 132.422 264.648 132.422 L 147.266 132.422 147.266 75.195 L 147.266 17.969 264.648 17.969 L 382.031 17.969 382.031 75.195 M263.281 261.719 L 263.281 382.031 205.273 382.031 L 147.266 382.031 147.266 261.719 L 147.266 141.406 205.273 141.406 L 263.281 141.406 263.281 261.719 M382.031 261.719 L 382.031 382.031 327.148 382.031 L 272.266 382.031 272.266 261.719 L 272.266 141.406 327.148 141.406 L 382.031 141.406 382.031 261.719 " stroke="none" fill="#141414" fill-rule="evenodd"></path></g></svg>